<?xml version="1.0" encoding="utf-8"?>
<!-- Generator: Adobe Illustrator 25.4.1, SVG Export Plug-In . SVG Version: 6.00 Build 0)  -->
<svg version="1.1" id="图层_1" xmlns="http://www.w3.org/2000/svg" xmlns:xlink="http://www.w3.org/1999/xlink" x="0px" y="0px"
	 viewBox="0 0 600.6 176" style="enable-background:new 0 0 600.6 176;" xml:space="preserve">
<style type="text/css">
	.st0{fill:#387CA4;}
	.st1{fill:#FB535A;}
	.st2{font-family:'STXingkai';}
	.st3{font-size:110px;}
	.st4{font-family:'STXinwei';}
	.st5{font-size:21px;}
</style>
<path class="st0" d="M95.3,50.2c-3.2,9.5-6.2,18.4-9.1,27.2c-1.7,5-1.3,5.6,3.9,5.6c17,0,34,0.1,50.9,0.1h4.6
	c0.4,0.8,0.7,1.2,0.6,1.4c-4.1,12.7-5.8,26.5-17.9,35.2c-6,4.5-13.3,6.9-20.7,6.9c-11.1,0-22.1,0.1-33.2-0.1c-3.3,0-5.2,0.9-6.2,4.4
	c-2.2,7.5-5,14.9-7.5,22.4c-4.5,14.2-17.8,23.7-32.7,23.5H5.2c-1.5,0-3-0.2-5.2-0.3c1.9-6.2,3.6-12,5.4-17.7
	c9.5-28.4,19-56.8,28.5-85.2c4.5-13.6,16.5-23.1,30.7-23.7c8.9-0.4,17.9-0.2,26.8-0.1C92.8,49.7,94,49.9,95.3,50.2z"/>
<path class="st1" d="M202.5,0.2c-5.6,13.2-6.2,27.6-17.6,37.1c-5.9,4.9-12.5,8.3-20.2,8.4c-20.1,0.3-40.3,0.2-60.4,0.2
	c-0.7-0.2-1.3-0.4-1.9-0.8c2-6.1,4.2-12.2,5.9-18.4C113,9.4,128.8-0.6,145.4,0c17.1,0.7,34.2,0.1,51.3,0.1L202.5,0.2z"/>
<text transform="matrix(1 0 0 1 196.7932 98.6474)" class="st2 st3">阜阳圈</text>
<text transform="matrix(1 0 0 1 269.0401 144.6986)" class="st4 st5">阜阳市地方资讯网站</text>
</svg>
